<?xml version="1.0" standalone="no"?>
<!DOCTYPE svg PUBLIC "-//W3C//DTD SVG 20010904//EN"
 "http://www.w3.org/TR/2001/REC-SVG-20010904/DTD/svg10.dtd">
<svg version="1.0" xmlns="http://www.w3.org/2000/svg"
 width="512.000000pt" height="512.000000pt" viewBox="0 0 512.000000 512.000000"
 preserveAspectRatio="xMidYMid meet">
<metadata>
Created by potrace 1.14, written by Peter Selinger 2001-2017
</metadata>
<g transform="translate(0.000000,512.000000) scale(0.100000,-0.100000)"
fill="#000000" stroke="none">
<path d="M2215 4859 c-623 -81 -1198 -420 -1501 -884 -112 -173 -196 -377
-231 -565 -24 -133 -24 -572 0 -706 32 -174 73 -281 181 -469 76 -132 87 -180
97 -415 9 -228 21 -295 74 -406 114 -236 347 -400 616 -430 l59 -7 0 -133 c0
-159 10 -215 57 -312 62 -128 194 -236 334 -277 57 -16 135 -19 437 -18 78 0
181 1 230 1 647 1 603 -1 683 28 139 50 241 138 304 264 45 89 55 148 55 310
l0 139 33 5 c197 27 265 50 377 126 156 106 253 235 310 415 18 57 24 107 31
275 9 222 21 290 68 380 170 327 189 376 217 565 18 120 18 478 -1 615 -85
636 -631 1200 -1375 1423 -305 92 -713 121 -1055 76z m610 -295 c649 -84 1165
-405 1404 -874 99 -193 131 -350 131 -645 0 -296 -33 -442 -138 -617 -126
-210 -149 -295 -161 -588 -9 -216 -15 -248 -66 -334 -32 -54 -118 -137 -171
-164 -62 -31 -133 -50 -214 -57 -99 -9 -159 -36 -215 -96 -72 -77 -78 -99 -85
-304 -7 -203 -17 -236 -86 -293 -53 -44 -105 -55 -241 -51 -109 4 -123 6 -159
30 l-39 26 -39 -26 c-38 -25 -45 -26 -186 -26 -141 0 -148 1 -186 26 -39 26
-41 26 -65 9 -43 -31 -90 -40 -198 -40 -115 1 -161 12 -216 54 -62 48 -69 71
-75 271 -7 197 -14 225 -79 312 -43 59 -104 86 -251 112 -147 26 -211 52 -279
116 -117 109 -139 177 -151 455 -12 282 -34 363 -162 577 -93 156 -122 267
-133 523 -21 479 87 773 399 1085 290 290 662 458 1156 524 110 15 377 12 505
-5z"/>
<path d="M1529 3212 c-114 -38 -215 -124 -267 -229 -40 -78 -52 -144 -52 -273
0 -135 12 -196 57 -283 138 -264 494 -321 705 -112 61 61 104 133 124 209 18
68 18 304 0 372 -33 125 -122 231 -243 291 -66 33 -82 36 -171 40 -75 2 -110
-1 -153 -15z"/>
<path d="M3340 3216 c-150 -42 -279 -177 -315 -330 -17 -71 -20 -259 -5 -337
24 -128 123 -254 246 -316 167 -82 361 -52 499 78 109 103 145 201 145 399 0
199 -37 300 -147 400 -63 57 -115 87 -188 106 -61 17 -175 16 -235 0z"/>
<path d="M2515 2307 c-8 -13 -68 -145 -132 -293 -99 -227 -117 -277 -118 -321
0 -41 5 -57 24 -77 l24 -26 249 0 249 0 25 28 c46 48 34 99 -95 400 -63 144
-122 273 -133 287 -26 33 -72 34 -93 2z"/>
</g>
</svg>
